<?xml version="1.0" encoding="utf-8"?>
<!-- Generator: Adobe Illustrator 19.2.0, SVG Export Plug-In . SVG Version: 6.00 Build 0)  -->
<!DOCTYPE svg PUBLIC "-//W3C//DTD SVG 1.1//EN" "http://www.w3.org/Graphics/SVG/1.1/DTD/svg11.dtd">
<svg version="1.1" id="Layer_1" xmlns="http://www.w3.org/2000/svg" xmlns:xlink="http://www.w3.org/1999/xlink" x="0px" y="0px"
	 viewBox="0 0 50.9 41" enable-background="new 0 0 50.9 41" xml:space="preserve">
<g>
	<path fill="#231F20" d="M19.5,12c-1.1-0.8-2.4-1.2-4.1-1.2c-0.7,0-1.3,0.1-2,0.2c-0.6,0.1-1.2,0.4-1.7,0.7
		c-0.5,0.3-0.9,0.7-1.2,1.3c-0.3,0.5-0.5,1.2-0.5,2c0,0.7,0.2,1.3,0.7,1.8c0.4,0.5,1,0.8,1.7,1.1c0.7,0.3,1.5,0.5,2.5,0.7
		c0.9,0.2,1.8,0.4,2.8,0.6c0.9,0.2,1.9,0.5,2.8,0.8c0.9,0.3,1.7,0.7,2.5,1.2c0.7,0.5,1.3,1.2,1.7,1.9c0.4,0.8,0.7,1.8,0.7,2.9
		c0,1.3-0.3,2.4-0.9,3.3c-0.6,0.9-1.3,1.6-2.2,2.2c-0.9,0.6-1.9,1-3,1.2c-1.1,0.3-2.2,0.4-3.3,0.4c-1.3,0-2.6-0.2-3.8-0.5
		s-2.2-0.8-3.1-1.5c-0.9-0.7-1.6-1.6-2.1-2.6c-0.5-1.1-0.8-2.3-0.8-3.8h3c0,1,0.2,1.9,0.6,2.6c0.4,0.7,0.9,1.3,1.5,1.8
		c0.6,0.5,1.4,0.8,2.2,1c0.8,0.2,1.7,0.3,2.6,0.3c0.7,0,1.4-0.1,2.2-0.2c0.7-0.1,1.4-0.4,2-0.7c0.6-0.3,1-0.8,1.4-1.3
		c0.4-0.6,0.5-1.3,0.5-2.1c0-0.8-0.2-1.5-0.7-2c-0.4-0.5-1-0.9-1.7-1.3c-0.7-0.3-1.5-0.6-2.5-0.8c-0.9-0.2-1.8-0.4-2.8-0.6
		c-0.9-0.2-1.9-0.5-2.8-0.7c-0.9-0.3-1.7-0.6-2.5-1.1c-0.7-0.5-1.3-1-1.7-1.8c-0.4-0.7-0.7-1.6-0.7-2.7c0-1.2,0.2-2.2,0.7-3.1
		c0.5-0.9,1.1-1.6,2-2.2c0.8-0.6,1.7-1,2.8-1.3c1-0.3,2.1-0.4,3.2-0.4c1.2,0,2.4,0.1,3.4,0.4c1,0.3,2,0.7,2.8,1.4
		c0.8,0.6,1.4,1.4,1.9,2.4c0.5,0.9,0.7,2.1,0.8,3.4h-3C21.2,14,20.6,12.8,19.5,12"/>
	<polygon fill="#231F20" points="26.8,9.3 30.4,9.3 36.1,18.2 42,9.3 45.4,9.3 37.9,20.4 45.9,32.1 42.2,32.1 36.1,22.7 29.7,32.1 
		26.3,32.1 34.3,20.4 	"/>
	<path fill="#231F20" d="M0,41h50.9V0H0V41z M49.4,39.5H1.5v-38h47.9V39.5z"/>
</g>
</svg>
